<svg id="Capa_1" enable-background="new 0 0 512 512" height="512" viewBox="0 0 512 512" width="512" xmlns="http://www.w3.org/2000/svg"><g><g><path clip-rule="evenodd" d="m114.103 10h-62.309v34.185c0 4.167 3.405 7.597 7.604 7.597h47.1c4.171 0 7.604-3.43 7.604-7.597v-34.185z" fill="#c193da" fill-rule="evenodd"/></g><g><path clip-rule="evenodd" d="m106.499 51.782h-47.1c-4.199 0-7.604-3.43-7.604-7.597v-34.185h-17.479-.142c-13.307.085-24.174 12.529-24.174 27.694v42.207 136.401h145.869v-152.275l.028-26.333c0-15.165-10.867-27.609-24.174-27.694h-.17-17.45v34.185c0 4.167-3.433 7.597-7.604 7.597z" fill="#cbf4fb" fill-rule="evenodd"/></g><g><path clip-rule="evenodd" d="m155.869 216.302h-145.869v23.527c.227 14.995 11.094 27.184 24.316 27.184h97.237c13.392 0 24.316-12.444 24.316-27.694z" fill="#c193da" fill-rule="evenodd"/></g><g><path clip-rule="evenodd" d="m485.884 64.027h-330.015v152.274 23.017c0 15.25-10.924 27.694-24.316 27.694h-97.237c-13.222 0-24.089-12.189-24.316-27.184v102.867h261.691v-121.575-30.302c0-7.597 6.214-13.804 13.818-13.804h202.673c7.604 0 13.818 6.208 13.818 13.804v-110.69c0-8.844-7.264-16.101-16.116-16.101z" fill="#98eaf9" fill-rule="evenodd"/></g><g><path clip-rule="evenodd" d="m488.182 177.014h-202.673c-7.604 0-13.818 6.208-13.818 13.804v30.302h63.415l10.016 13.521h83.447l10.016-13.521h63.415v-30.302c0-7.596-6.214-13.804-13.818-13.804z" fill="#c193da" fill-rule="evenodd"/></g><g><path clip-rule="evenodd" d="m271.691 342.696h-261.691v32.201c.199 8.702 7.377 15.732 16.116 15.732h161.645 83.929v-47.933z" fill="#d0ace4" fill-rule="evenodd"/></g><g><path clip-rule="evenodd" d="m271.691 390.629h-83.93l-30.019 60.802h113.41.539z" fill="#c193da" fill-rule="evenodd"/></g><g><path clip-rule="evenodd" d="m335.106 221.12h-63.415v121.576 47.933 60.802h230.309v-230.311h-63.415l-10.016 13.521h-83.447z" fill="#cbf4fb" fill-rule="evenodd"/></g><g><path clip-rule="evenodd" d="m502 451.431h-230.309v36.765c0 7.597 6.214 13.804 13.818 13.804h202.673c7.604 0 13.818-6.208 13.818-13.804z" fill="#c193da" fill-rule="evenodd"/></g><g><path clip-rule="evenodd" d="m271.152 451.431h-113.41-22.614c-13.931 0-25.309 11.367-25.309 25.285v25.284h175.151.539c-7.604 0-13.818-6.208-13.818-13.804v-36.765z" fill="#d0ace4" fill-rule="evenodd"/></g><g><path d="m485.884 54.027h-319.989l.002-16.333c0-20.785-15.406-37.694-34.344-37.694h-97.237c-18.922 0-34.316 16.909-34.316 37.694v336.834c0 14.392 11.716 26.101 26.116 26.101h145.555l-20.145 40.802h-16.398c-19.47 0-35.309 15.829-35.309 35.285v25.284c0 5.523 4.477 10 10 10h175.151c.061 0 .12-.008.18-.009.12.002.239.009.359.009h202.673c13.133 0 23.818-10.679 23.818-23.804v-408.068c0-14.392-11.716-26.101-26.116-26.101zm6.116 157.093h-53.415c-3.168 0-6.149 1.501-8.036 4.048l-7.018 9.474h-73.373l-7.017-9.474c-1.886-2.546-4.867-4.048-8.036-4.048h-53.415v-20.302c0-2.062 1.749-3.804 3.818-3.804h202.673c2.069 0 3.818 1.742 3.818 3.804v20.302zm-6.116-137.093c3.315 0 6.116 2.793 6.116 6.101v87.196c-1.244-.201-2.518-.31-3.818-.31h-202.673c-13.133 0-23.818 10.679-23.818 23.804v141.877h-241.691v-59.134c4.361 2.208 9.208 3.45 14.316 3.45h97.236c18.922 0 34.316-16.909 34.316-37.692l.023-165.292zm-465.884 152.275h125.871l-.002 13.017c0 9.591-6.556 17.694-14.316 17.694h-97.237c-7.76 0-14.316-8.103-14.316-17.694zm41.794-206.302h42.309v21.782h-42.309zm-41.794 17.694c0-9.591 6.556-17.694 14.316-17.694h7.478v24.185c0 9.703 7.897 17.597 17.604 17.597h47.101c9.707 0 17.604-7.894 17.604-17.597v-24.185h7.45c7.776 0 14.345 8.103 14.345 17.692l-.004 25.846c-.008.163-.025.324-.025.489 0 .164.017.324.025.486l-.02 141.788h-125.874v-126.4zm0 336.834v-21.833h241.69v27.933h-235.574c-3.372.001-6.116-2.736-6.116-6.1zm173.977 26.101h67.714v40.802h-87.859zm-74.158 76.086c0-8.428 6.868-15.285 15.309-15.285 0 0 22.592.002 22.606.002.012 0 103.957-.002 103.957-.002v26.765c0 1.295.108 2.565.308 3.804h-142.18zm368.363 15.285h-202.673c-2.07 0-3.818-1.742-3.818-3.804v-26.765h59.885c5.523 0 10-4.477 10-10s-4.477-10-10-10h-59.886v-210.311h48.378l7.017 9.474c1.886 2.546 4.867 4.048 8.036 4.048h83.447c3.168 0 6.149-1.501 8.036-4.048l7.018-9.474h48.378v210.311h-60.509c-5.523 0-10 4.477-10 10s4.477 10 10 10h60.509v26.765c0 2.062-1.749 3.804-3.818 3.804z"/><path d="m386.519 441.431c-5.523 0-10 4.477-10 10s4.477 10 10 10h.057c5.523 0 9.972-4.477 9.972-10s-4.506-10-10.029-10z"/></g></g></svg>