<svg id="Capa_1" enable-background="new 0 0 512 512" height="512" viewBox="0 0 512 512" width="512" xmlns="http://www.w3.org/2000/svg"><g><g><path clip-rule="evenodd" d="m329.233 447.381h172.767v-221.23c0-.057 0-.113 0-.142-.085-17.989-12.995-32.687-28.799-32.687h-20.287v32.488c0 5.419-4.455 9.846-9.874 9.846h-54.846c-5.448 0-9.874-4.426-9.874-9.846v-32.488h-20.287c-15.833 0-28.799 14.754-28.799 32.828v112.389 47.98 60.862z" fill="#cbf4fb" fill-rule="evenodd"/></g><g><path clip-rule="evenodd" d="m56.192 147.555c0 5.221 4.284 9.477 9.505 9.477h9.903c2.639 11.69 7.235 22.642 13.449 32.46l-7.008 7.037c-3.689 3.689-3.689 9.704 0 13.392l18.783 18.783c3.689 3.689 9.732 3.689 13.421 0l7.008-7.008c9.817 6.214 20.77 10.839 32.46 13.449v9.931c0 5.221 4.256 9.477 9.477 9.477h26.586c5.192 0 9.477-4.256 9.477-9.477v-9.931c11.69-2.61 22.642-7.235 32.46-13.449l7.008 7.008c3.689 3.689 9.732 3.689 13.421 0l18.783-18.783c3.689-3.689 3.689-9.704 0-13.392l-7.008-7.037c6.214-9.817 10.81-20.77 13.449-32.46h9.902c5.221 0 9.505-4.256 9.505-9.477v-26.558c0-5.221-4.284-9.505-9.505-9.505h-9.902c-2.639-11.69-7.235-22.614-13.449-32.431l7.008-7.037c3.376-3.376 3.66-8.711.851-12.428-.255-.34-.539-.653-.851-.993l-18.784-18.783c-3.689-3.689-9.732-3.689-13.421 0l-7.008 7.037c-9.817-6.214-20.77-10.839-32.46-13.449v-9.931c0-5.221-4.284-9.477-9.477-9.477h-26.585c-5.221 0-9.477 4.256-9.477 9.477v9.931c-11.69 2.61-22.642 7.235-32.46 13.449l-7.008-7.037c-3.689-3.689-9.732-3.689-13.421 0l-18.783 18.784c-.312.34-.596.653-.851.993-2.809 3.717-2.525 9.051.851 12.428l7.008 7.037c-6.214 9.817-10.81 20.741-13.449 32.431h-9.902c-5.221 0-9.505 4.284-9.505 9.505v26.557zm60.607-13.279c0-32.97 26.728-59.67 59.67-59.67 32.97 0 59.698 26.7 59.698 59.67s-26.728 59.67-59.698 59.67c-32.942.001-59.67-26.699-59.67-59.67z" fill="#c193da" fill-rule="evenodd"/></g><g><path clip-rule="evenodd" d="m116.799 134.276c0 32.97 26.728 59.67 59.67 59.67 32.97 0 59.698-26.7 59.698-59.67s-26.728-59.67-59.698-59.67c-32.942 0-59.67 26.7-59.67 59.67z" fill="#98eaf9" fill-rule="evenodd"/></g><g><path clip-rule="evenodd" d="m10 338.539h319.233v-112.388c0-18.074 12.967-32.828 28.799-32.828h20.287 74.594 20.287c15.804 0 28.714 14.698 28.799 32.687v-150.297c0-8.853-7.264-16.116-16.116-16.116h-214.107c2.809 3.717 2.525 9.051-.851 12.428l-7.008 7.037c6.214 9.817 10.81 20.741 13.449 32.431h9.902c5.221 0 9.505 4.284 9.505 9.505v26.558c0 5.221-4.284 9.477-9.505 9.477h-9.902c-2.639 11.69-7.235 22.642-13.449 32.46l7.008 7.037c3.689 3.689 3.689 9.704 0 13.392l-18.783 18.783c-3.689 3.689-9.732 3.689-13.421 0l-7.008-7.008c-9.817 6.214-20.77 10.839-32.46 13.449v9.931c0 5.221-4.284 9.477-9.477 9.477h-26.586c-5.221 0-9.477-4.256-9.477-9.477v-9.931c-11.69-2.61-22.642-7.235-32.46-13.449l-7.008 7.008c-3.689 3.689-9.732 3.689-13.421 0l-18.783-18.783c-3.689-3.689-3.689-9.704 0-13.392l7.008-7.037c-6.214-9.817-10.81-20.77-13.449-32.46h-9.902c-5.221 0-9.505-4.256-9.505-9.477v-26.558c0-5.221 4.284-9.505 9.505-9.505h9.902c2.639-11.69 7.235-22.614 13.449-32.431l-7.008-7.037c-3.376-3.376-3.66-8.711-.851-12.428h-55.074c-8.881 0-16.116 7.263-16.116 16.116z" fill="#98eaf9" fill-rule="evenodd"/></g><g><path clip-rule="evenodd" d="m388.193 235.656h54.846c5.419 0 9.874-4.426 9.874-9.846v-32.488h-74.594v32.488c0 5.42 4.426 9.846 9.874 9.846z" fill="#c193da" fill-rule="evenodd"/></g><g><path clip-rule="evenodd" d="m358.032 498h115.169c15.832 0 28.799-14.783 28.799-32.828v-17.79h-172.767v17.79c0 18.045 12.966 32.828 28.799 32.828z" fill="#c193da" fill-rule="evenodd"/></g><g><path clip-rule="evenodd" d="m187.761 386.519h141.471v-47.98h-319.232v31.864c0 8.881 7.235 16.116 16.116 16.116z" fill="#d0ace4" fill-rule="evenodd"/></g><g><path clip-rule="evenodd" d="m157.742 447.381h171.491v-60.862h-141.472z" fill="#c193da" fill-rule="evenodd"/></g><g><path clip-rule="evenodd" d="m109.819 498h248.213c-15.833 0-28.799-14.783-28.799-32.828v-17.79h-171.491-22.614c-13.931 0-25.309 11.378-25.309 25.309z" fill="#d0ace4" fill-rule="evenodd"/></g><g><path d="m485.884 49.597h-209.823l-16.849-16.848c-3.673-3.672-8.567-5.695-13.781-5.695s-10.108 2.023-13.795 5.709l-1.557 1.563c-6.659-3.582-13.622-6.468-20.826-8.633v-2.216c0-10.74-8.737-19.477-19.478-19.477h-26.586c-10.739 0-19.477 8.737-19.477 19.477v2.216c-7.204 2.165-14.168 5.052-20.826 8.633l-1.57-1.577c-3.673-3.673-8.567-5.696-13.782-5.696-5.214 0-10.108 2.023-13.781 5.695l-16.847 16.849h-50.79c-14.4 0-26.116 11.716-26.116 26.116v294.69c0 14.4 11.716 26.116 26.116 26.116h145.562l-20.155 40.862h-16.396c-19.47 0-35.31 15.839-35.31 35.309v25.31c0 5.523 4.478 10 10 10h248.214 115.169c21.395 0 38.8-19.213 38.8-42.829v-239.02-150.438c0-14.4-11.716-26.116-26.116-26.116zm-400.53 64.097c2.351-10.414 6.437-20.267 12.144-29.285 2.498-3.946 1.932-9.096-1.363-12.405l-6.663-6.689 18.062-18.062 6.633 6.661c3.308 3.32 8.476 3.899 12.435 1.393 9.068-5.74 18.924-9.824 29.291-12.139 4.57-1.021 7.82-5.077 7.82-9.76v-9.408h25.54v9.408c0 4.683 3.25 8.739 7.82 9.76 10.367 2.315 20.222 6.399 29.29 12.139 3.96 2.506 9.128 1.927 12.434-1.393l6.635-6.661 18.062 18.062-6.663 6.689c-3.296 3.309-3.862 8.459-1.364 12.405 5.707 9.018 9.793 18.871 12.144 29.285 1.029 4.56 5.08 7.798 9.755 7.798h9.408v25.54h-9.408c-4.675 0-8.726 3.238-9.755 7.798-2.357 10.443-6.443 20.306-12.144 29.313-2.498 3.946-1.932 9.096 1.364 12.405l6.648 6.675-18.048 18.049-6.648-6.648c-3.309-3.308-8.467-3.88-12.42-1.378-9.067 5.739-18.922 9.824-29.29 12.139-4.57 1.021-7.82 5.077-7.82 9.76v9.407h-25.54v-9.407c0-4.683-3.25-8.739-7.82-9.76-10.368-2.315-20.224-6.399-29.291-12.139-3.952-2.501-9.11-1.929-12.42 1.379l-6.647 6.647-18.048-18.049 6.648-6.675c3.295-3.309 3.861-8.458 1.363-12.405-5.7-9.007-9.786-18.87-12.144-29.313-1.029-4.56-5.08-7.798-9.755-7.798h-9.407v-25.54h9.408c4.674 0 8.725-3.238 9.754-7.798zm-65.354 256.709v-21.863h299.232v27.98h-293.116c-3.372 0-6.116-2.744-6.116-6.117zm173.98 26.117h125.253v40.862h-145.408zm-74.162 76.17c0-8.441 6.868-15.309 15.31-15.309h22.563c.014 0 .029.002.043.002.012 0 .023-.002.035-.002h161.463v7.79c0 8.388 2.205 16.215 5.995 22.829h-205.41v-15.31zm372.182-7.519c0 12.375-8.608 22.829-18.799 22.829h-115.169c-10.19 0-18.8-10.454-18.8-22.829v-239.02c0-12.375 8.609-22.829 18.8-22.829h10.287v22.488c0 10.943 8.915 19.846 19.874 19.846h54.846c10.959 0 19.874-8.903 19.874-19.846v-22.488h10.288c10.19 0 18.799 10.454 18.799 22.829zm-103.681-239.515v-22.333h54.594v22.333zm103.681-36.953c-5.573-3.423-11.982-5.38-18.799-5.38h-115.169c-21.395 0-38.8 19.213-38.8 42.829v102.388h-299.232v-252.827c0-3.315 2.801-6.116 6.116-6.116h43.653c.775 3.482 2.491 6.79 5.186 9.484l1.58 1.586c-3.571 6.641-6.46 13.605-8.638 20.825h-2.2c-10.755 0-19.505 8.75-19.505 19.505v26.558c0 10.74 8.75 19.477 19.505 19.477h2.199c2.18 7.236 5.069 14.21 8.64 20.853l-1.566 1.572c-7.591 7.592-7.591 19.944 0 27.534l18.783 18.784c7.601 7.6 19.965 7.599 27.563 0l1.556-1.556c6.662 3.584 13.632 6.474 20.841 8.641v2.216c0 10.739 8.737 19.477 19.477 19.477h26.586c10.74 0 19.478-8.737 19.478-19.477v-2.216c7.209-2.167 14.178-5.056 20.84-8.641l1.557 1.557c7.598 7.597 19.962 7.599 27.563 0l18.783-18.783c7.591-7.591 7.591-19.943.014-27.521l-1.58-1.587c3.569-6.643 6.459-13.616 8.639-20.852h2.199c10.756 0 19.506-8.737 19.506-19.477v-26.558c0-10.755-8.75-19.505-19.506-19.505h-2.2c-2.178-7.22-5.066-14.184-8.638-20.825l1.566-1.572c2.7-2.7 4.421-6.013 5.196-9.499h202.692c3.315 0 6.116 2.801 6.116 6.116v112.99z"/><path d="m176.469 203.946c38.432 0 69.698-31.254 69.698-69.67s-31.267-69.67-69.698-69.67c-38.416 0-69.67 31.254-69.67 69.67s31.254 69.67 69.67 69.67zm0-119.34c27.403 0 49.698 22.282 49.698 49.67s-22.295 49.67-49.698 49.67c-27.388 0-49.67-22.282-49.67-49.67s22.282-49.67 49.67-49.67z"/></g><g><path d="m502 457.381h-41.426c-5.522 0-10-4.477-10-10s4.478-10 10-10h41.426c5.522 0 10 4.477 10 10s-4.478 10-10 10zm-131.342 0h-41.426c-5.522 0-10-4.477-10-10s4.478-10 10-10h41.426c5.522 0 10 4.477 10 10s-4.477 10-10 10z"/></g><g><path d="m415.603 457.381c-5.522 0-10.015-4.477-10.015-10s4.463-10 9.985-10h.029c5.522 0 10 4.477 10 10s-4.477 10-9.999 10z"/></g></g></svg>