<svg height="480pt" viewBox="0 0 480 480" width="480pt" xmlns="http://www.w3.org/2000/svg" xmlns:xlink="http://www.w3.org/1999/xlink"><linearGradient id="a"><stop offset="0" stop-color="#20d6de"/><stop offset="1" stop-color="#5e309d"/></linearGradient><linearGradient id="b" gradientUnits="userSpaceOnUse" x1="0" x2="497.608" xlink:href="#a" y1="32" y2="32"/><linearGradient id="c" gradientUnits="userSpaceOnUse" x1="0" x2="497.608" xlink:href="#a" y1="152" y2="152"/><linearGradient id="d" gradientUnits="userSpaceOnUse" x1="0" x2="497.608" xlink:href="#a" y1="168" y2="168"/><linearGradient id="e" gradientUnits="userSpaceOnUse" x1="0" x2="497.608" xlink:href="#a" y1="136" y2="136"/><linearGradient id="f" gradientUnits="userSpaceOnUse" x1="0" x2="497.608" xlink:href="#a" y1="240" y2="240"/><linearGradient id="g" gradientUnits="userSpaceOnUse" x1="0" x2="497.608" xlink:href="#a" y1="280" y2="280"/><linearGradient id="h" gradientUnits="userSpaceOnUse" x1="0" x2="497.608" xlink:href="#a" y1="392" y2="392"/><path d="m304 24h16v16h-16zm0 0" fill="url(#b)"/><path d="m240 24h32v16h-32zm0 0" fill="url(#b)"/><path d="m264 96h-64c-13.253906 0-24 10.746094-24 24v64c0 13.253906 10.746094 24 24 24h64c13.253906 0 24-10.746094 24-24v-64c0-13.253906-10.746094-24-24-24zm8 88c0 4.417969-3.582031 8-8 8h-64c-4.417969 0-8-3.582031-8-8v-64c0-4.417969 3.582031-8 8-8h64c4.417969 0 8 3.582031 8 8zm0 0" fill="url(#c)"/><path d="m328 208h32c13.253906 0 24-10.746094 24-24v-32c0-13.253906-10.746094-24-24-24h-32c-13.253906 0-24 10.746094-24 24v32c0 13.253906 10.746094 24 24 24zm-8-56c0-4.417969 3.582031-8 8-8h32c4.417969 0 8 3.582031 8 8v32c0 4.417969-3.582031 8-8 8h-32c-4.417969 0-8-3.582031-8-8zm0 0" fill="url(#d)"/><path d="m208 128h16v16h-16zm0 0" fill="url(#e)"/><path d="m240 128h16v16h-16zm0 0" fill="url(#e)"/><g fill="url(#d)"><path d="m208 160h16v16h-16zm0 0"/><path d="m240 160h16v16h-16zm0 0"/><path d="m336 160h16v16h-16zm0 0"/></g><path d="m472 288h-24v-40c0-4.417969-3.582031-8-8-8h-24v-200c-.027344-22.082031-17.917969-39.9726562-40-40h-192c-22.082031.0273438-39.972656 17.917969-40 40v248h-24c-4.417969 0-8 3.582031-8 8v24h-16v-8c0-4.417969-3.582031-8-8-8h-80c-4.417969 0-8 3.582031-8 8v160c0 4.417969 3.582031 8 8 8h80c4.417969 0 8-3.582031 8-8v-8h56 .175781c7.5 10.042969 19.289063 15.972656 31.824219 16h192c19-.023438 35.371094-13.386719 39.199219-32h24.800781c4.417969 0 8-3.582031 8-8v-40h8c4.417969 0 8-3.582031 8-8v-40h8c4.417969 0 8-3.582031 8-8v-48c0-4.417969-3.582031-8-8-8zm-40 0h-40c-4.417969 0-8-3.582031-8-8v-16c0-4.417969 3.582031-8 8-8h40zm-72 128h-32c-4.417969 0-8-3.582031-8-8v-32c0-4.417969 3.582031-8 8-8h32c4.417969 0 8 3.582031 8 8v32c0 4.417969-3.582031 8-8 8zm8-136v16c0 4.417969-3.582031 8-8 8h-32c-4.417969 0-8-3.582031-8-8v-32c0-4.417969 3.582031-8 8-8h32c4.417969 0 8 3.582031 8 8zm-32-264v24c0 4.417969-3.582031 8-8 8h-96c-4.417969 0-8-3.582031-8-8v-24zm-208 288h88c4.417969 0 8 3.582031 8 8v32c0 4.417969-3.582031 8-8 8h-88zm110.527344 0c-3.378906-9.554688-12.394532-15.957031-22.527344-16h-8v-24c0-4.417969 3.582031-8 8-8h32c4.417969 0 8 3.582031 8 8v32c0 4.417969-3.582031 8-8 8zm-30.527344 72c0-4.417969 3.582031-8 8-8h32c4.417969 0 8 3.582031 8 8v32c0 4.417969-3.582031 8-8 8h-32c-4.417969 0-8-3.582031-8-8zm-128 88h-64v-144h64zm64-16h-48v-112h16v24c0 4.417969 3.582031 8 8 8h24zm232 16h-192c-13.253906 0-24-10.746094-24-24v-72h33.472656c-.949218 2.5625-1.445312 5.269531-1.472656 8v32c0 13.253906 10.746094 24 24 24h32c13.253906 0 24-10.746094 24-24v-32c0-13.253906-10.746094-24-24-24h-9.472656c.949218-2.5625 1.445312-5.269531 1.472656-8v-24h8c13.253906 0 24-10.746094 24-24v-32c0-13.253906-10.746094-24-24-24h-32c-13.253906 0-24 10.746094-24 24v24h-32v-248c0-13.253906 10.746094-24 24-24h24v24c0 13.253906 10.746094 24 24 24h96c13.253906 0 24-10.746094 24-24v-24h24c13.253906 0 24 10.746094 24 24v200h-8c-5.921875.019531-11.625 2.246094-16 6.238281-4.375-3.992187-10.078125-6.21875-16-6.238281h-32c-13.253906 0-24 10.746094-24 24v32c0 13.253906 10.746094 24 24 24h32c2.730469-.027344 5.4375-.523438 8-1.472656v9.472656c.019531 5.921875 2.246094 11.625 6.238281 16-2.511719 2.789062-4.332031 6.132812-5.308593 9.761719-2.835938-1.15625-5.867188-1.753907-8.929688-1.761719h-32c-13.253906 0-24 10.746094-24 24v32c0 13.253906 10.746094 24 24 24h32c3.0625-.007812 6.09375-.605469 8.929688-1.761719 2.808593 10.445313 12.257812 17.714844 23.070312 17.761719h6.527344c-3.378906 9.554688-12.394532 15.957031-22.527344 16zm56-32h-40c-4.417969 0-8-3.582031-8-8v-16c0-4.417969 3.582031-8 8-8h40zm16-48h-56c-4.417969 0-8-3.582031-8-8v-16c0-4.417969 3.582031-8 8-8h56zm16-48h-72c-4.417969 0-8-3.582031-8-8v-16c0-4.417969 3.582031-8 8-8h72zm0 0" fill="url(#f)"/><path d="m336 272h16v16h-16zm0 0" fill="url(#g)"/><path d="m224 384h16v16h-16zm0 0" fill="url(#h)"/></svg>